<svg width="21" height="21" viewBox="0 0 21 21" fill="none" xmlns="http://www.w3.org/2000/svg">
<path d="M17.2721 0.522415L3.13225 0.373756C1.51705 0.356775 0.18891 1.65728 0.171929 3.27248L0.0232695 17.4123C0.00628799 19.0275 1.30679 20.3557 2.922 20.3727L8.82011 20.4347L8.89444 13.3647L6.55082 13.3401L6.58778 9.82467L8.9314 9.84931L8.95645 7.46663C8.97683 5.52811 10.5703 3.96778 12.5088 3.98816L16.0633 4.02553L16.0264 7.54096L12.4719 7.50359L12.4468 9.88627L16.0013 9.92364L15.3785 13.4329L12.4099 13.4017L12.3355 20.4716L17.0618 20.5213C18.677 20.5383 20.0052 19.2378 20.0222 17.6226L20.1708 3.48274C20.1878 1.86753 18.8873 0.539397 17.2721 0.522415Z" fill="black"/>
</svg>
