<svg width="21" height="20" viewBox="0 0 21 20" fill="none" xmlns="http://www.w3.org/2000/svg">
<path d="M10.2065 0.712185C4.68184 0.654101 0.161238 4.96849 0.104685 10.3476C0.0594305 14.652 2.8859 18.3324 6.84465 19.6611C7.34365 19.758 7.53015 19.4585 7.53287 19.1999C7.5353 18.9686 7.53341 18.3556 7.53778 17.5436C4.75009 18.1017 4.18337 16.2014 4.18337 16.2014C3.74021 15.0724 3.08591 14.7648 3.08591 14.7648C2.18648 14.1515 3.16213 14.1741 3.16213 14.1741C4.16553 14.2524 4.68316 15.1938 4.68316 15.1938C5.55912 16.6925 7.01273 16.2774 7.58698 16.0348C7.6836 15.4055 7.94559 14.9795 8.23397 14.7388C6.01582 14.4718 3.69059 13.6096 3.72983 9.87764C3.741 8.81454 4.13762 7.94963 4.78641 7.2749C4.67651 7.02756 4.34944 6.03361 4.90101 4.69779C4.90101 4.69779 5.74121 4.44557 7.64036 5.72537C8.44259 5.51736 9.29367 5.41891 10.1437 5.42289C10.9936 5.43678 11.8424 5.5531 12.6401 5.77793C14.5532 4.53821 15.3879 4.80804 15.3879 4.80804C15.9113 6.15516 15.5634 7.14202 15.4608 7.38713C16.0911 8.0753 16.4695 8.94836 16.4583 10.0115C16.4189 13.7534 14.0729 14.5523 11.8455 14.7685C12.1924 15.0646 12.5111 15.6652 12.5015 16.578C12.4878 17.8815 12.4643 18.9287 12.461 19.2451C12.4583 19.5004 12.6301 19.807 13.1436 19.7149C17.1577 18.4783 20.0584 14.8557 20.1036 10.5578C20.1601 5.17875 15.7287 0.770242 10.2065 0.712185Z" fill="#212121"/>
</svg>
