<svg width="22" height="22" viewBox="0 0 22 22" fill="none" xmlns="http://www.w3.org/2000/svg">
<path d="M14.9539 1.11954L7.45431 1.0407C4.00325 1.00441 1.17523 3.77359 1.13895 7.22465L1.0601 14.7242C1.02382 18.1753 3.79299 21.0033 7.24405 21.0396L14.7436 21.1184C18.1947 21.1547 21.0227 18.3855 21.059 14.9345L21.1378 7.4349C21.1741 3.98384 18.405 1.15583 14.9539 1.11954ZM19.1841 14.9148C19.1587 17.3271 17.1757 19.2689 14.7633 19.2435L7.26376 19.1647C4.85139 19.1393 2.90963 17.1563 2.93499 14.7439L3.01384 7.24436C3.0392 4.83199 5.02223 2.89023 7.43459 2.91559L14.9342 2.99444C17.3465 3.0198 19.2883 5.00283 19.2629 7.41519L19.1841 14.9148Z" fill="black"/>
<path d="M11.1515 6.07985C8.39045 6.05082 6.12829 8.26591 6.09926 11.027C6.07023 13.7881 8.28532 16.0503 11.0464 16.0793C13.8075 16.1083 16.0697 13.8932 16.0987 11.1321C16.1277 8.37104 13.9126 6.10888 11.1515 6.07985ZM11.0661 14.2044C9.34373 14.1863 7.95605 12.7691 7.97416 11.0467C7.99228 9.32306 9.40943 7.93664 11.1318 7.95474C12.8542 7.97285 14.2419 9.38877 14.2238 11.1124C14.2057 12.8348 12.7885 14.2225 11.0661 14.2044Z" fill="black"/>
<path d="M16.5232 6.42757C16.8911 6.43144 17.1925 6.13631 17.1964 5.76837C17.2003 5.40043 16.9051 5.09902 16.5372 5.09515C16.1692 5.09129 15.8678 5.38642 15.864 5.75436C15.8601 6.1223 16.1552 6.42371 16.5232 6.42757Z" fill="black"/>
</svg>
